<svg version="1.1" xmlns="http://www.w3.org/2000/svg" xmlns:xlink="http://www.w3.org/1999/xlink" width="57.10769" height="53.73606" viewBox="0,0,57.10769,53.73606"><defs><radialGradient cx="240.14039" cy="180.94075" r="16.4" gradientUnits="userSpaceOnUse" id="color-1"><stop offset="0" stop-color="#000000"/><stop offset="1" stop-color="#000000" stop-opacity="0"/></radialGradient><linearGradient x1="210.58791" y1="180.81914" x2="236.6956" y2="180.81914" gradientUnits="userSpaceOnUse" id="color-2"><stop offset="0" stop-color="#ffffff" stop-opacity="0"/><stop offset="1" stop-color="#ffffff"/></linearGradient><linearGradient x1="239.79175" y1="208.02297" x2="239.79175" y2="181.91529" gradientUnits="userSpaceOnUse" id="color-3"><stop offset="0" stop-color="#ffffff" stop-opacity="0"/><stop offset="1" stop-color="#ffffff"/></linearGradient><linearGradient x1="270.8956" y1="178.11913" x2="244.78791" y2="178.11913" gradientUnits="userSpaceOnUse" id="color-4"><stop offset="0" stop-color="#ffffff" stop-opacity="0"/><stop offset="1" stop-color="#ffffff"/></linearGradient><linearGradient x1="239.40193" y1="151.0869" x2="239.40193" y2="177.19461" gradientUnits="userSpaceOnUse" id="color-5"><stop offset="0" stop-color="#ffffff" stop-opacity="0"/><stop offset="1" stop-color="#ffffff"/></linearGradient></defs><g transform="translate(-212.18791,-152.68692)"><g data-paper-data="{&quot;isPaintingLayer&quot;:true}" fill-rule="nonzero" stroke="none" stroke-width="0" stroke-linecap="butt" stroke-linejoin="miter" stroke-miterlimit="10" stroke-dasharray="" stroke-dashoffset="0" style="mix-blend-mode: normal"><g><path d="M223.74039,180.94075c0,-9.05747 7.34253,-16.4 16.4,-16.4c9.05747,0 16.4,7.34253 16.4,16.4c0,9.05747 -7.34253,16.4 -16.4,16.4c-9.05747,0 -16.4,-7.34253 -16.4,-16.4z" fill="url(#color-1)"/><path d="M236.7956,183.18836l-24.60769,9l0.2,-23.23846l24.50769,9.8z" data-paper-data="{&quot;index&quot;:null}" fill="url(#color-2)"/><path d="M241.86099,181.71529l9.8,24.50769l-23.23846,0.2l9,-24.60769z" fill="url(#color-3)"/><path d="M244.58791,176.0499l24.50769,-9.8l0.2,23.23846l-24.60769,-9z" fill="url(#color-4)"/><path d="M237.3327,177.39461l-9.8,-24.50769l23.23846,-0.2l-9,24.60769z" fill="url(#color-5)"/></g></g></g></svg>